<svg xmlns="http://www.w3.org/2000/svg" version="1.1" xmlns:xlink="http://www.w3.org/1999/xlink" xmlns:svgjs="http://svgjs.dev/svgjs" width="2000" height="328" viewBox="0 0 2000 328"><g transform="matrix(1,0,0,1,-1.2120888941500425,-0.15531907065437167)"><svg viewBox="0 0 396 65" data-background-color="#ffffff" preserveAspectRatio="xMidYMid meet" height="328" width="2000" xmlns="http://www.w3.org/2000/svg" xmlns:xlink="http://www.w3.org/1999/xlink"><g id="tight-bounds" transform="matrix(1,0,0,1,0.23999360104170364,0.030779693879679826)"><svg viewBox="0 0 395.52 64.93844061224063" height="64.93844061224063" width="395.52"><g><svg viewBox="0 0 574.7415502987453 94.36392605042016" height="64.93844061224063" width="395.52"><g><rect width="8.46749874109311" height="94.36392605042016" x="148.58782448672787" y="0" fill="#1ebbd7" opacity="1" stroke-width="0" stroke="transparent" fill-opacity="1" class="rect-o-0" data-fill-palette-color="primary" rx="1%" id="o-0" data-palette-color="#1ebbd7"></rect></g><g transform="matrix(1,0,0,1,179.22155029874534,0.23473613445377595)"><svg viewBox="0 0 395.52 93.89445378151261" height="93.89445378151261" width="395.52"><g id="textblocktransform"><svg viewBox="0 0 395.52 93.89445378151261" height="93.89445378151261" width="395.52" id="textblock"><g><svg viewBox="0 0 395.52 93.89445378151261" height="93.89445378151261" width="395.52"><g transform="matrix(1,0,0,1,0,0)"><svg width="395.52" viewBox="3 -33.29999923706055 142.7899932861328 33.89999771118164" height="93.89445378151261" data-palette-color="#1ebbd7"><path d="M17.7 0.6L17.7 0.6Q14.65 0.6 11.98-0.5 9.3-1.6 7.3-3.75 5.3-5.9 4.15-9.05 3-12.2 3-16.25L3-16.25Q3-20.25 4.15-23.43 5.3-26.6 7.33-28.8 9.35-31 12.1-32.15 14.85-33.3 18.1-33.3L18.1-33.3Q21.15-33.3 23.53-32.05 25.9-30.8 27.45-29.2L27.45-29.2 24.25-25.6Q23-26.8 21.5-27.53 20-28.25 18.1-28.25L18.1-28.25Q16.05-28.25 14.38-27.43 12.7-26.6 11.5-25.08 10.3-23.55 9.63-21.35 8.95-19.15 8.95-16.4L8.95-16.4Q8.95-13.6 9.63-11.38 10.3-9.15 11.5-7.63 12.7-6.1 14.43-5.28 16.15-4.45 18.25-4.45L18.25-4.45Q20.25-4.45 21.88-5.3 23.5-6.15 24.9-7.7L24.9-7.7 28.1-4.15Q26.15-1.85 23.58-0.63 21 0.6 17.7 0.6ZM41.9-17.4L41.9-17.4 40.75-13.4 49.05-13.4 47.9-17.4Q47.2-20 46.45-22.73 45.7-25.45 45-28.2L45-28.2 44.8-28.2Q44.1-25.45 43.37-22.73 42.65-20 41.9-17.4ZM36.9 0L31 0 41.6-32.7 48.4-32.7 59 0 52.85 0 50.35-8.85 39.45-8.85 36.9 0ZM69.25 0L63.7 0 63.7-32.7 69.8-32.7 78.45-14.35 81.4-7.35 81.55-7.35Q81.34-9.9 81.05-12.83 80.75-15.75 80.75-18.5L80.75-18.5 80.75-32.7 86.3-32.7 86.3 0 80.2 0 71.55-18.4 68.59-25.35 68.45-25.35Q68.65-22.7 68.95-19.88 69.25-17.05 69.25-14.3L69.25-14.3 69.25 0ZM99.24 0L93.69 0 93.69-32.7 99.79-32.7 108.44-14.35 111.39-7.35 111.54-7.35Q111.34-9.9 111.04-12.83 110.74-15.75 110.74-18.5L110.74-18.5 110.74-32.7 116.29-32.7 116.29 0 110.19 0 101.54-18.4 98.59-25.35 98.44-25.35Q98.64-22.7 98.94-19.88 99.24-17.05 99.24-14.3L99.24-14.3 99.24 0ZM145.79 0L124.19 0 124.19-4.9 132.09-4.9 132.09-27.8 124.19-27.8 124.19-32.7 145.79-32.7 145.79-27.8 137.89-27.8 137.89-4.9 145.79-4.9 145.79 0Z" opacity="1" transform="matrix(1,0,0,1,0,0)" fill="#1ebbd7" class="undefined-text-0" data-fill-palette-color="primary" id="text-0"></path></svg></g></svg></g></svg></g></svg></g><g transform="matrix(1,0,0,1,0,0.23473613445377595)"><svg viewBox="0 0 126.42159741580349 93.89445378151261" height="93.89445378151261" width="126.42159741580349"><g><svg xmlns="http://www.w3.org/2000/svg" xmlns:xlink="http://www.w3.org/1999/xlink" version="1.1" x="0" y="0" viewBox="7.5 18.434999465942383 85.0009994506836 63.131004333496094" enable-background="new 0 0 100 100" xml:space="preserve" height="93.89445378151261" width="126.42159741580349" class="icon-icon-0" data-fill-palette-color="accent" id="icon-0"><g fill="#1ebbd7" data-fill-palette-color="accent"><path d="M89.405 18.435H10.595c-1.706 0-3.095 1.389-3.095 3.095v56.941c0 1.706 1.389 3.095 3.095 3.095h78.811c1.707 0 3.095-1.389 3.095-3.095V77.14 32.027 21.529C92.5 19.823 91.112 18.435 89.405 18.435zM10.595 19.673h78.811c1.023 0 1.857 0.833 1.857 1.856v9.075c-0.068-0.01-0.136-0.021-0.207-0.021H8.951c-0.073 0-0.143 0.011-0.213 0.021v-9.076C8.738 20.506 9.571 19.673 10.595 19.673zM91.263 77.14c0 0.114-0.093 0.206-0.207 0.206H8.951c-0.113 0-0.206-0.092-0.206-0.206V32.027c0-0.113 0.093-0.206 0.206-0.206h82.104c0.114 0 0.207 0.093 0.207 0.206V77.14zM89.405 80.327H10.595c-0.992 0-1.798-0.784-1.848-1.764 0.067 0.01 0.135 0.021 0.204 0.021h82.104c0.068 0 0.133-0.011 0.197-0.02C91.202 79.544 90.396 80.327 89.405 80.327z" fill="#1ebbd7" data-fill-palette-color="accent"></path><path d="M28.178 27.787c1.45 0 2.63-1.18 2.63-2.63 0-1.451-1.18-2.631-2.63-2.631s-2.631 1.18-2.631 2.631C25.547 26.607 26.728 27.787 28.178 27.787zM28.178 23.765c0.768 0 1.393 0.624 1.393 1.393 0 0.768-0.625 1.393-1.393 1.393-0.769 0-1.393-0.625-1.393-1.393C26.785 24.389 27.409 23.765 28.178 23.765z" fill="#1ebbd7" data-fill-palette-color="accent"></path><path d="M21.458 27.787c1.451 0 2.631-1.18 2.631-2.63 0-1.451-1.18-2.631-2.631-2.631-1.45 0-2.63 1.18-2.63 2.631C18.828 26.607 20.008 27.787 21.458 27.787zM21.458 23.765c0.769 0 1.393 0.624 1.393 1.393 0 0.768-0.624 1.393-1.393 1.393-0.768 0-1.393-0.625-1.393-1.393C20.065 24.389 20.69 23.765 21.458 23.765z" fill="#1ebbd7" data-fill-palette-color="accent"></path><path d="M14.738 27.787c1.451 0 2.631-1.18 2.631-2.63 0-1.451-1.18-2.631-2.631-2.631-1.45 0-2.63 1.18-2.63 2.631C12.108 26.607 13.288 27.787 14.738 27.787zM14.738 23.765c0.769 0 1.393 0.624 1.393 1.393 0 0.768-0.624 1.393-1.393 1.393-0.768 0-1.393-0.625-1.393-1.393C13.346 24.389 13.971 23.765 14.738 23.765z" fill="#1ebbd7" data-fill-palette-color="accent"></path></g><path d="M26.598 65.915c-0.624 0-1.395-0.429-2.289-1.276-1.605-1.519-2.16-2.371-1.2-3.405l8.79-8.811-8.774-8.782c-0.676-0.676-0.57-1.195-0.401-1.57 0.242-0.544 0.814-1.117 1.479-1.781 0.829-0.829 1.542-1.542 2.241-1.542 0.342 0 0.679 0.172 1.033 0.526l11.769 11.755c0.311 0.254 0.521 0.659 0.564 1.134 0.048 0.537-0.134 1.152-0.452 1.533L27.53 65.514C27.243 65.787 26.941 65.915 26.598 65.915zM23.846 42.57c-0.009 0 0.027 0.068 0.154 0.194l9.211 9.221c0.241 0.242 0.241 0.633 0 0.875L24 62.093c-0.093 0.1-0.125 0.147-0.133 0.166 0.012 0.047 0.125 0.377 1.292 1.48 0.979 0.927 1.42 0.938 1.438 0.938v0.619l0.01-0.62c-0.001 0.001-0.001 0.001-0.001 0.001-0.003 0 0.02-0.012 0.061-0.05l11.777-11.767c0.061-0.077 0.151-0.357 0.131-0.589-0.013-0.145-0.063-0.246-0.162-0.328L26.601 40.148c-0.144-0.143-0.215-0.171-0.215-0.171-0.182 0.06-0.886 0.764-1.307 1.184-0.531 0.532-1.077 1.078-1.227 1.413C23.85 42.571 23.848 42.57 23.846 42.57z" fill="#1ebbd7" data-fill-palette-color="accent"></path><path d="M55.834 71.436H40.498c-1.594 0-1.92-1.234-1.92-3.088s0.326-3.088 1.92-3.088h15.336c1.503 0 1.787 1.085 1.787 3.088C57.621 70.396 57.346 71.436 55.834 71.436zM40.498 66.497c-0.366 0-0.683 0-0.683 1.851s0.316 1.851 0.683 1.851h15.336c0.354 0 0.55 0 0.55-1.851s-0.219-1.851-0.55-1.851H40.498z" fill="#1ebbd7" data-fill-palette-color="accent"></path></svg></g></svg></g></svg></g><defs></defs></svg><rect width="395.52" height="64.93844061224063" fill="none" stroke="none" visibility="hidden"></rect></g></svg></g></svg>